Coordinates
version=1
nRows=29
nColumns=24
inDegrees=yes

Units are S.I. units (second, meters, Newtons, ...)
Angles are in degrees.

endheader
time	pelvis_tilt	pelvis_list	pelvis_rotation	pelvis_tx	pelvis_ty	pelvis_tz	hip_flexion_r	hip_adduction_r	hip_rotation_r	knee_angle_r	ankle_angle_r	subtalar_angle_r	mtp_angle_r	hip_flexion_l	hip_adduction_l	hip_rotation_l	knee_angle_l	ankle_angle_l	subtalar_angle_l	mtp_angle_l	lumbar_extension	lumbar_bending	lumbar_rotation
      2.23000000	     -1.82387063	     -3.06168170	      5.03465015	     -0.01750680	      0.97937324	      0.06118778	     -6.57843320	      6.65515625	    -16.61807084	     -8.69713559	     19.06031402	      0.00000000	      0.00000000	     25.42819640	     -4.61479904	     -9.01814585	     -3.00510688	      5.65563291	      0.00000000	      0.00000000	    -17.84276932	      4.95762442	     -0.60223022
      2.24000000	     -1.63542660	     -2.91601028	      5.08158600	     -0.01623211	      0.97839776	      0.05929393	     -7.33422453	      6.43705854	    -16.62088270	     -8.82057984	     19.44234496	      0.00000000	      0.00000000	     25.71452321	     -4.28804843	     -8.29257683	     -4.71214306	      6.39020894	      0.00000000	      0.00000000	    -18.07533795	      4.80411402	     -0.73117035
      2.25000000	     -1.53048499	     -2.74460762	      4.97977803	     -0.01466680	      0.97743084	      0.05751589	     -8.00920805	      6.15997389	    -16.45829816	     -8.95039616	     19.55694537	      0.00000000	      0.00000000	     25.93106476	     -3.94840751	     -7.74089501	     -6.29439064	      6.31718760	      0.00000000	      0.00000000	    -18.18004860	      4.56970694	     -0.70564198
      2.26000000	     -1.42858996	     -2.57534764	      4.75044465	     -0.01277359	      0.97653457	      0.05569867	     -8.68686988	      5.84427965	    -16.30355991	     -9.10082121	     19.65441165	      0.00000000	      0.00000000	     26.03645841	     -3.62939511	     -7.08399036	     -7.83534903	      6.09520717	      0.00000000	      0.00000000	    -18.24008666	      4.31493469	     -0.54826629
      2.27000000	     -1.30817197	     -2.42278298	      4.48470457	     -0.01061616	      0.97570438	      0.05394225	     -9.36041717	      5.53592538	    -16.11705774	     -9.31309094	     19.71353940	      0.00000000	      0.00000000	     26.05375026	     -3.32049406	     -6.34939675	     -9.33003203	      5.76023367	      0.00000000	      0.00000000	    -18.27119572	      4.05061844	     -0.37819890
      2.28000000	     -1.22005858	     -2.30374878	      4.17311213	     -0.00812551	      0.97495312	      0.05209637	     -9.98795691	      5.22717258	    -15.93516732	     -9.58313238	     19.70641161	      0.00000000	      0.00000000	     25.96932409	     -3.03424936	     -5.62199686	    -10.60808526	      5.32487695	      0.00000000	      0.00000000	    -18.21550380	      3.82959320	     -0.13712257
      2.29000000	     -1.03492751	     -2.19070427	      3.93908391	     -0.00552419	      0.97444721	      0.05027214	    -10.63506324	      4.92517542	    -15.67542091	    -10.02906103	     19.65545638	      0.00000000	      0.00000000	     25.79996245	     -2.74342400	     -4.74707703	    -11.92741578	      4.81277948	      0.00000000	      0.00000000	    -18.24568780	      3.61210726	     -0.04819697
      2.30000000	     -0.91724493	     -2.10598585	      3.59601601	     -0.00266869	      0.97405331	      0.04850577	    -11.18793262	      4.60810233	    -15.49323929	    -10.51255956	     19.49979163	      0.00000000	      0.00000000	     25.55835234	     -2.52018378	     -3.96683305	    -12.97767613	      4.25538007	      0.00000000	      0.00000000	    -18.16038995	      3.39775699	      0.17437819
      2.31000000	     -0.63992496	     -2.00711481	      3.37438535	      0.00016264	      0.97412841	      0.04674628	    -11.75904060	      4.27762674	    -15.28958499	    -11.30834636	     19.28697634	      0.00000000	      0.00000000	     25.10838208	     -2.28345908	     -3.13774117	    -13.90731345	      3.62153498	      0.00000000	      0.00000000	    -18.26340649	      3.18404005	      0.19664063
      2.32000000	     -0.53716114	     -1.90157725	      3.01327037	      0.00312998	      0.97420047	      0.04505930	    -12.13782258	      3.87960980	    -15.12043029	    -12.04706925	     18.86080991	      0.00000000	      0.00000000	     24.80395171	     -2.11003675	     -2.54413005	    -14.79708443	      3.10620321	      0.00000000	      0.00000000	    -18.15382353	      2.93206470	      0.38055455
      2.33000000	     -0.36989343	     -1.78601520	      2.76117483	      0.00602088	      0.97462426	      0.04336321	    -12.39926687	      3.45893934	    -14.93795209	    -13.14450513	     18.26632341	      0.00000000	      0.00000000	     24.44133559	     -1.93361795	     -2.04314668	    -15.67355544	      2.66928140	      0.00000000	      0.00000000	    -18.13761912	      2.68217512	      0.41093409
      2.34000000	     -0.19776939	     -1.66459753	      2.53548216	      0.00889002	      0.97529938	      0.04162111	    -12.55509215	      3.00924992	    -14.82157715	    -14.41507861	     17.58638989	      0.00000000	      0.00000000	     24.04126177	     -1.78162374	     -1.70322524	    -16.48634195	      2.41097147	      0.00000000	      0.00000000	    -18.13864354	      2.43844948	      0.40288217
      2.35000000	     -0.00331101	     -1.41353764	      2.16168141	      0.01155495	      0.97627456	      0.03994396	    -12.43882955	      2.30490096	    -14.61493062	    -16.25028331	     16.85006473	      0.00000000	      0.00000000	     23.54533026	     -1.57220712	     -1.68726978	    -17.21084021	      2.45715276	      0.00000000	      0.00000000	    -18.22139118	      2.02007976	      0.52215403
      2.36000000	      0.19257525	     -1.22486705	      1.94533985	      0.01420412	      0.97738529	      0.03801282	    -12.30255995	      1.68962243	    -14.56394576	    -18.04433509	     15.78955039	      0.00000000	      0.00000000	     23.13339890	     -1.38552906	     -1.63946347	    -18.09672805	      2.61795894	      0.00000000	      0.00000000	    -18.31200551	      1.72111048	      0.51583611
      2.37000000	      0.44064817	     -1.06386075	      1.93842936	      0.01681882	      0.97867850	      0.03591381	    -12.14006522	      1.15389497	    -14.53627658	    -19.95965725	     14.61803577	      0.00000000	      0.00000000	     22.68434906	     -1.18923103	     -1.75367404	    -18.96965256	      2.87461383	      0.00000000	      0.00000000	    -18.46130538	      1.50486430	      0.25789922
      2.38000000	      0.49675426	     -0.73936063	      1.46855288	      0.01926698	      0.97978848	      0.03409676	    -11.38761681	      0.22831583	    -14.20348800	    -22.55253924	     13.42511127	      0.00000000	      0.00000000	     22.30200598	     -0.95386562	     -2.26229553	    -19.72334929	      3.57618207	      0.00000000	      0.00000000	    -18.41852176	      1.01877759	      0.47551395
      2.39000000	      0.74431498	     -0.49232209	      1.37306436	      0.02176540	      0.98122512	      0.03186272	    -10.92106622	     -0.50489970	    -14.18551895	    -24.93392455	     11.82541736	      0.00000000	      0.00000000	     21.73015801	     -0.66469163	     -2.54390019	    -20.44246243	      4.31043769	      0.00000000	      0.00000000	    -18.58043159	      0.71354082	      0.32876393
      2.40000000	      0.90663629	     -0.20606806	      1.09199538	      0.02403825	      0.98248760	      0.02965775	    -10.09530316	     -1.37027071	    -13.89436098	    -27.74770790	     10.34823669	      0.00000000	      0.00000000	     21.15867478	     -0.37016889	     -3.11618285	    -20.99667733	      5.07123732	      0.00000000	      0.00000000	    -18.65982597	      0.36827666	      0.33241756
      2.41000000	      1.09018005	      0.06382692	      0.90167578	      0.02624727	      0.98374111	      0.02742651	     -9.23122113	     -2.18025502	    -13.62667167	    -30.60094815	      8.75799670	      0.00000000	      0.00000000	     20.52968325	     -0.03655493	     -3.55083767	    -21.46627656	      5.88297499	      0.00000000	      0.00000000	    -18.75122355	      0.05761670	      0.23821108
      2.42000000	      1.37323238	      0.29244953	      0.80674042	      0.02837754	      0.98507913	      0.02507347	     -8.45375340	     -2.91127694	    -13.42145301	    -33.40957983	      7.07399253	      0.00000000	      0.00000000	     19.74918294	      0.32216275	     -3.78134199	    -21.83534101	      6.78426070	      0.00000000	      0.00000000	    -18.95204781	     -0.16917343	      0.04582621
      2.43000000	      1.59921394	      0.52587184	      0.62819864	      0.03026386	      0.98628578	      0.02290908	     -7.46521744	     -3.63826871	    -13.02091038	    -36.39656558	      5.60630445	      0.00000000	      0.00000000	     18.95646111	      0.68960517	     -4.05227530	    -22.03705751	      7.64000390	      0.00000000	      0.00000000	    -19.09131688	     -0.41501038	     -0.08181681
      2.44000000	      1.81112029	      0.72142788	      0.44935967	      0.03193616	      0.98737616	      0.02087044	     -6.39188806	     -4.27289439	    -12.53218668	    -39.39943715	      4.37733913	      0.00000000	      0.00000000	     18.15373560	      1.03973405	     -4.17493126	    -22.15818161	      8.44049476	      0.00000000	      0.00000000	    -19.21452021	     -0.60826941	     -0.23503217
      2.45000000	      1.80025959	      0.91169313	      0.15279180	      0.03325147	      0.98805589	      0.01920339	     -4.90960962	     -4.86059858	    -11.83812282	    -42.57922375	      3.62804521	      0.00000000	      0.00000000	     17.53782544	      1.34660260	     -4.45153540	    -22.11948369	      9.08590781	      0.00000000	      0.00000000	    -19.09029771	     -0.84100602	     -0.28885007
      2.46000000	      1.93901544	      1.01805496	      0.01350283	      0.03440903	      0.98896500	      0.01750131	     -3.67506098	     -5.26240363	    -11.28855442	    -45.48825970	      2.99724168	      0.00000000	      0.00000000	     16.77697594	      1.62905782	     -4.37227432	    -22.08779228	      9.83225348	      0.00000000	      0.00000000	    -19.14878302	     -0.93956782	     -0.47692054
      2.47000000	      2.11694834	      1.08315580	     -0.12393073	      0.03528606	      0.98994864	      0.01592396	     -2.46585655	     -5.56173656	    -10.73508088	    -48.27805025	      2.68998878	      0.00000000	      0.00000000	     15.96969787	      1.87496136	     -4.13015569	    -22.02086525	     10.54482751	      0.00000000	      0.00000000	    -19.27481474	     -0.98565754	     -0.66810122
      2.48000000	      2.35872831	      0.94302576	     -0.10194731	      0.03591415	      0.99115584	      0.01447889	     -1.41712828	     -5.52749319	    -10.33211381	    -50.75955303	      2.71491212	      0.00000000	      0.00000000	     15.09180180	      1.91117229	     -3.70911326	    -21.88296671	     10.95215366	      0.00000000	      0.00000000	    -19.49858728	     -0.78430104	     -0.94752166
      2.49000000	      2.24717292	      1.09589638	     -0.42893994	      0.03623424	      0.99169356	      0.01353300	      0.27430958	     -5.82790121	     -9.61367326	    -53.52564758	      3.29173638	      0.00000000	      0.00000000	     14.55134653	      2.14711832	     -3.85848215	    -21.66903036	     11.57677798	      0.00000000	      0.00000000	    -19.31310645	     -1.00439302	     -0.98234421
      2.50000000	      2.33002079	      0.99711518	     -0.51116085	      0.03636725	      0.99269002	      0.01248548	      1.57752352	     -5.75769490	     -9.17119924	    -55.79984867	      3.92548042	      0.00000000	      0.00000000	     13.84123304	      2.16303596	     -3.57625188	    -21.48794483	     12.04634617	      0.00000000	      0.00000000	    -19.38617108	     -0.88746775	     -1.16455310
      2.51000000	      2.29038479	      0.91712535	     -0.66124167	      0.03624845	      0.99353283	      0.01157568	      3.05486548	     -5.71365868	     -8.79254958	    -57.94601950	      4.79661719	      0.00000000	      0.00000000	     13.26253229	      2.15146252	     -3.55718484	    -21.27841808	     12.41817004	      0.00000000	      0.00000000	    -19.33682861	     -0.80111183	     -1.27965211
